<svg xmlns="http://www.w3.org/2000/svg" xmlns:xlink="http://www.w3.org/1999/xlink" version="1.1" id="Capa_1" x="0px" y="0px" viewBox="0 0 612 612" style="enable-background:new 0 0 612 612;" xml:space="preserve" class="attachment-thumbnail size-thumbnail style-svg replaced-svg svg-replaced-0">
<g>
	<g>
		<linearGradient id="SVGID_1_" gradientUnits="userSpaceOnUse" x1="-5.258530e-04" y1="306.0021" x2="612.0027" y2="306.0021">
		</linearGradient>
		<path class="st0" d="M517.5,604.1c-0.2,0-0.4,0-0.6,0H364.4c-6.2,0-11.1-5-11.1-11.1V420c0-5-4.2-9.2-9.2-9.2h-81.4    c-5,0-9.2,4.2-9.2,9.2v173c0,6.2-5,11.1-11.1,11.1H89.7c-13.7,0-27.1-5.7-36.9-15.6c-9.8-9.9-15.1-22.8-14.9-36.4V348.8    c0-3,1.2-5.8,3.3-7.9L295.5,86.6c4.4-4.4,11.4-4.4,15.7,0l254.4,254.4c2.1,2.1,3.3,4.9,3.3,7.9v203.5c0,13.7-5.7,27.2-15.6,37    C543.5,598.8,530.9,604.1,517.5,604.1z M375.5,581.8H517c0.1,0,0.2,0,0.3,0c7.6,0,14.8-3,20.3-8.5c5.7-5.6,9-13.3,9-21.1V353.4    L303.4,110.2L60.1,353.4v198.8c-0.1,7.8,2.9,15.1,8.5,20.7c5.6,5.7,13.3,8.9,21.1,8.9h141.5V420c0-17.4,14.1-31.5,31.5-31.5h81.4    c17.4,0,31.5,14.1,31.5,31.5L375.5,581.8L375.5,581.8z M600.9,321.8c-2.8,0-5.6-1.1-7.8-3.2L304,34.6L18.9,310.9    c-4.4,4.3-11.4,4.2-15.7-0.2c-4.3-4.4-4.2-11.5,0.2-15.7L296.3,11.1c4.3-4.2,11.2-4.2,15.5,0.1l296.8,291.7    c4.4,4.3,4.4,11.4,0.1,15.7C606.6,320.7,603.8,321.8,600.9,321.8z"></path>
	</g>
</g>
</svg>